<svg width="41" height="41" viewBox="0 0 41 41" fill="none" xmlns="http://www.w3.org/2000/svg">
<rect x="0.558594" y="0.850586" width="40" height="40" rx="20" fill="#8076F8"/>
<path d="M20.2236 25.5456C22.6386 25.5456 24.1986 24.2556 24.1986 22.4706C24.1986 21.1056 23.1636 20.3106 22.0386 20.0556C23.1786 19.7256 23.9736 18.8706 23.9736 17.6856C23.9736 16.0506 22.5186 14.8656 20.2086 14.8656C18.3786 14.8656 17.1486 15.6606 16.2936 16.6956L17.5686 18.0456C18.2586 17.3256 19.0236 16.8456 19.9836 16.8456C21.0036 16.8456 21.7236 17.3256 21.7236 18.0756C21.7236 18.8106 21.0486 19.2306 19.9236 19.2306L18.7386 19.2156V21.1056H19.9236C21.3036 21.0906 21.9336 21.4956 21.9336 22.2906C21.9336 23.0256 21.2586 23.5506 20.1336 23.5506C19.0986 23.5506 18.1236 23.1156 17.3886 22.3356L16.0836 23.8056C16.9536 24.8106 18.3786 25.5456 20.2236 25.5456Z" fill="white"/>
</svg>
