<svg width="590" height="259" viewBox="0 0 590 259" fill="none" xmlns="http://www.w3.org/2000/svg">
<path d="M158.31 156.759H183.603V201.192H158.31V254H100.717V201.192H4.50098L1.08301 165.987L100.717 5.68457V5.17188H158.31V156.759ZM55.9414 156.759H100.717V80.1963L97.1279 86.0068L55.9414 156.759ZM381.674 152.315C381.674 185.925 374.097 211.845 358.944 230.074C343.905 248.303 322.657 257.418 295.199 257.418C267.514 257.418 246.094 248.246 230.941 229.903C215.788 211.56 208.212 185.698 208.212 152.315V106.856C208.212 73.2464 215.731 47.3268 230.771 29.0977C245.924 10.8685 267.286 1.75391 294.857 1.75391C322.429 1.75391 343.791 10.9255 358.944 29.2686C374.097 47.6117 381.674 73.5312 381.674 107.027V152.315ZM324.081 99.5078C324.081 81.6204 321.745 68.2904 317.074 59.5176C312.403 50.6309 304.997 46.1875 294.857 46.1875C284.945 46.1875 277.711 50.2891 273.153 58.4922C268.71 66.6953 266.317 79.1139 265.976 95.748V159.322C265.976 177.893 268.311 191.508 272.982 200.167C277.654 208.712 285.059 212.984 295.199 212.984C304.997 212.984 312.232 208.826 316.903 200.509C321.575 192.078 323.967 178.919 324.081 161.031V99.5078ZM563.681 156.759H588.974V201.192H563.681V254H506.088V201.192H409.872L406.454 165.987L506.088 5.68457V5.17188H563.681V156.759ZM461.312 156.759H506.088V80.1963L502.499 86.0068L461.312 156.759Z" fill="white"/>
<path d="M158.31 156.759H157.31V157.759H158.31V156.759ZM183.603 156.759H184.603V155.759H183.603V156.759ZM183.603 201.192V202.192H184.603V201.192H183.603ZM158.31 201.192V200.192H157.31V201.192H158.31ZM158.31 254V255H159.31V254H158.31ZM100.717 254H99.7168V255H100.717V254ZM100.717 201.192H101.717V200.192H100.717V201.192ZM4.50098 201.192L3.50566 201.289L3.59336 202.192H4.50098V201.192ZM1.08301 165.987L0.233689 165.459L0.0549717 165.747L0.0876875 166.084L1.08301 165.987ZM100.717 5.68457L101.566 6.21245L101.717 5.97002V5.68457H100.717ZM100.717 5.17188V4.17188H99.7168V5.17188H100.717ZM158.31 5.17188H159.31V4.17188H158.31V5.17188ZM55.9414 156.759L55.0772 156.256L54.2022 157.759H55.9414V156.759ZM100.717 156.759V157.759H101.717V156.759H100.717ZM100.717 80.1963H101.717V76.6743L99.866 79.6708L100.717 80.1963ZM97.1279 86.0068L96.2771 85.4813L96.2703 85.4925L96.2637 85.5037L97.1279 86.0068ZM158.31 157.759H183.603V155.759H158.31V157.759ZM182.603 156.759V201.192H184.603V156.759H182.603ZM183.603 200.192H158.31V202.192H183.603V200.192ZM157.31 201.192V254H159.31V201.192H157.31ZM158.31 253H100.717V255H158.31V253ZM101.717 254V201.192H99.7168V254H101.717ZM100.717 200.192H4.50098V202.192H100.717V200.192ZM5.4963 201.096L2.07833 165.891L0.0876875 166.084L3.50566 201.289L5.4963 201.096ZM1.93233 166.515L101.566 6.21245L99.8675 5.15669L0.233689 165.459L1.93233 166.515ZM101.717 5.68457V5.17188H99.7168V5.68457H101.717ZM100.717 6.17188H158.31V4.17188H100.717V6.17188ZM157.31 5.17188V156.759H159.31V5.17188H157.31ZM55.9414 157.759H100.717V155.759H55.9414V157.759ZM101.717 156.759V80.1963H99.7168V156.759H101.717ZM99.866 79.6708L96.2771 85.4813L97.9787 86.5323L101.568 80.7218L99.866 79.6708ZM96.2637 85.5037L55.0772 156.256L56.8056 157.262L97.9922 86.5099L96.2637 85.5037ZM358.944 230.074L358.175 229.435L358.173 229.438L358.944 230.074ZM230.771 29.0977L230.001 28.4584L229.999 28.4613L230.771 29.0977ZM358.944 29.2686L358.173 29.9054L358.944 29.2686ZM317.074 59.5176L316.189 59.9829L316.192 59.9876L317.074 59.5176ZM273.153 58.4922L272.279 58.0065L272.274 58.0159L273.153 58.4922ZM265.976 95.748L264.976 95.7275L264.976 95.7378V95.748H265.976ZM272.982 200.167L272.102 200.642L272.105 200.647L272.982 200.167ZM316.903 200.509L317.775 200.999L317.778 200.993L316.903 200.509ZM324.081 161.031L325.081 161.038V161.031H324.081ZM380.674 152.315C380.674 185.788 373.127 211.447 358.175 229.435L359.713 230.713C375.067 212.243 382.674 186.063 382.674 152.315H380.674ZM358.173 229.438C343.356 247.398 322.412 256.418 295.199 256.418V258.418C322.901 258.418 344.455 249.209 359.716 230.711L358.173 229.438ZM295.199 256.418C267.758 256.418 246.643 247.341 231.712 229.266L230.17 230.54C245.546 249.152 267.27 258.418 295.199 258.418V256.418ZM231.712 229.266C216.757 211.163 209.212 185.558 209.212 152.315H207.212C207.212 185.838 214.82 211.958 230.17 230.54L231.712 229.266ZM209.212 152.315V106.856H207.212V152.315H209.212ZM209.212 106.856C209.212 73.3824 216.702 47.7217 231.542 29.734L229.999 28.4613C214.761 46.9319 207.212 73.1104 207.212 106.856H209.212ZM231.54 29.7369C246.47 11.7748 267.529 2.75391 294.857 2.75391V0.753906C267.043 0.753906 245.377 9.96216 230.001 28.4584L231.54 29.7369ZM294.857 2.75391C322.184 2.75391 343.242 11.8302 358.173 29.9054L359.715 28.6317C344.341 10.0207 322.674 0.753906 294.857 0.753906V2.75391ZM358.173 29.9054C373.128 48.0085 380.674 73.6703 380.674 107.027H382.674C382.674 73.3922 375.067 47.2148 359.715 28.6317L358.173 29.9054ZM380.674 107.027V152.315H382.674V107.027H380.674ZM325.081 99.5078C325.081 81.5682 322.745 68.039 317.957 59.0476L316.192 59.9876C320.746 68.5417 323.081 81.6727 323.081 99.5078H325.081ZM317.959 59.0523C315.553 54.4735 312.415 50.9929 308.531 48.6625C304.648 46.3324 300.077 45.1875 294.857 45.1875V47.1875C299.778 47.1875 303.98 48.2642 307.502 50.3775C311.024 52.4905 313.925 55.675 316.189 59.9829L317.959 59.0523ZM294.857 45.1875C289.762 45.1875 285.298 46.2427 281.504 48.3937C277.707 50.5464 274.635 53.7654 272.279 58.0065L274.027 58.9778C276.229 55.0158 279.053 52.0825 282.491 50.1336C285.931 48.1831 290.041 47.1875 294.857 47.1875V45.1875ZM272.274 58.0159C267.717 66.4298 265.319 79.0406 264.976 95.7275L266.975 95.7686C267.316 79.1873 269.703 66.9608 274.033 58.9685L272.274 58.0159ZM264.976 95.748V159.322H266.976V95.748H264.976ZM264.976 159.322C264.976 177.936 267.31 191.758 272.102 200.642L273.863 199.692C269.313 191.259 266.976 177.85 266.976 159.322H264.976ZM272.105 200.647C274.516 205.057 277.657 208.406 281.54 210.646C285.421 212.885 289.987 213.984 295.199 213.984V211.984C290.272 211.984 286.065 210.947 282.54 208.914C279.017 206.882 276.12 203.822 273.86 199.687L272.105 200.647ZM295.199 213.984C300.243 213.984 304.679 212.913 308.472 210.732C312.267 208.551 315.364 205.291 317.775 200.998L316.031 200.019C313.771 204.043 310.915 207.021 307.476 208.999C304.034 210.977 299.954 211.984 295.199 211.984V213.984ZM317.778 200.993C322.574 192.338 324.967 178.972 325.081 161.038L323.081 161.025C322.967 178.865 320.575 191.818 316.029 200.024L317.778 200.993ZM325.081 161.031V99.5078H323.081V161.031H325.081ZM563.681 156.759H562.681V157.759H563.681V156.759ZM588.974 156.759H589.974V155.759H588.974V156.759ZM588.974 201.192V202.192H589.974V201.192H588.974ZM563.681 201.192V200.192H562.681V201.192H563.681ZM563.681 254V255H564.681V254H563.681ZM506.088 254H505.088V255H506.088V254ZM506.088 201.192H507.088V200.192H506.088V201.192ZM409.872 201.192L408.877 201.289L408.964 202.192H409.872V201.192ZM406.454 165.987L405.605 165.459L405.426 165.747L405.459 166.084L406.454 165.987ZM506.088 5.68457L506.937 6.21245L507.088 5.97002V5.68457H506.088ZM506.088 5.17188V4.17188H505.088V5.17188H506.088ZM563.681 5.17188H564.681V4.17188H563.681V5.17188ZM461.312 156.759L460.448 156.256L459.573 157.759H461.312V156.759ZM506.088 156.759V157.759H507.088V156.759H506.088ZM506.088 80.1963H507.088V76.6743L505.237 79.6708L506.088 80.1963ZM502.499 86.0068L501.648 85.4813L501.641 85.4925L501.635 85.5037L502.499 86.0068ZM563.681 157.759H588.974V155.759H563.681V157.759ZM587.974 156.759V201.192H589.974V156.759H587.974ZM588.974 200.192H563.681V202.192H588.974V200.192ZM562.681 201.192V254H564.681V201.192H562.681ZM563.681 253H506.088V255H563.681V253ZM507.088 254V201.192H505.088V254H507.088ZM506.088 200.192H409.872V202.192H506.088V200.192ZM410.867 201.096L407.449 165.891L405.459 166.084L408.877 201.289L410.867 201.096ZM407.303 166.515L506.937 6.21245L505.239 5.15669L405.605 165.459L407.303 166.515ZM507.088 5.68457V5.17188H505.088V5.68457H507.088ZM506.088 6.17188H563.681V4.17188H506.088V6.17188ZM562.681 5.17188V156.759H564.681V5.17188H562.681ZM461.312 157.759H506.088V155.759H461.312V157.759ZM507.088 156.759V80.1963H505.088V156.759H507.088ZM505.237 79.6708L501.648 85.4813L503.35 86.5323L506.939 80.7218L505.237 79.6708ZM501.635 85.5037L460.448 156.256L462.177 157.262L503.363 86.5099L501.635 85.5037Z" fill="#B8B8B8"/>
</svg>
