<svg width="26" height="24" viewBox="0 0 26 24" fill="none" xmlns="http://www.w3.org/2000/svg">
<path opacity="0.4" d="M24.3753 8.98483H22.8715V7.51452C22.8715 6.88681 22.368 6.375 21.7477 6.375C21.1287 6.375 20.624 6.88681 20.624 7.51452V8.98483H19.1227C18.5024 8.98483 17.999 9.49664 17.999 10.1243C17.999 10.7521 18.5024 11.2639 19.1227 11.2639H20.624V12.7355C20.624 13.3632 21.1287 13.875 21.7477 13.875C22.368 13.875 22.8715 13.3632 22.8715 12.7355V11.2639H24.3753C24.9943 11.2639 25.499 10.7521 25.499 10.1243C25.499 9.49664 24.9943 8.98483 24.3753 8.98483Z" fill="#8076F8"/>
<path d="M9.87451 15.7695C4.81729 15.7695 0.499512 16.5781 0.499512 19.8084C0.499512 23.0375 4.79102 23.8751 9.87451 23.8751C14.9305 23.8751 19.2495 23.0666 19.2495 19.8363C19.2495 16.6059 14.958 15.7695 9.87451 15.7695Z" fill="#8076F8"/>
<path opacity="0.4" d="M9.87516 12.6928C13.3184 12.6928 16.0785 9.89711 16.0785 6.40952C16.0785 2.92192 13.3184 0.125 9.87516 0.125C6.43195 0.125 3.67188 2.92192 3.67188 6.40952C3.67188 9.89711 6.43195 12.6928 9.87516 12.6928Z" fill="#8076F8"/>
</svg>
