<svg width="822" height="823" viewBox="0 0 822 823" fill="none" xmlns="http://www.w3.org/2000/svg">
<g filter="url(#filter0_d)">
<rect x="36" y="32.3516" width="750" height="750" rx="46" fill="white"/>
<line opacity="0.2" x1="76" y1="250.751" x2="746" y2="250.751" stroke="#1D2125" stroke-width="1.20074" stroke-dasharray="4.8 7.2"/>
<line opacity="0.2" x1="76" y1="311.751" x2="746" y2="311.751" stroke="#1D2125" stroke-width="1.20074" stroke-dasharray="4.8 7.2"/>
<line opacity="0.2" x1="76" y1="372.751" x2="746" y2="372.751" stroke="#1D2125" stroke-width="1.20074" stroke-dasharray="4.8 7.2"/>
<line opacity="0.2" x1="76" y1="433.751" x2="746" y2="433.751" stroke="#1D2125" stroke-width="1.20074" stroke-dasharray="4.8 7.2"/>
<line opacity="0.2" x1="76" y1="494.751" x2="746" y2="494.751" stroke="#1D2125" stroke-width="1.20074" stroke-dasharray="4.8 7.2"/>
<line opacity="0.2" x1="76" y1="555.751" x2="746" y2="555.751" stroke="#1D2125" stroke-width="1.20074" stroke-dasharray="4.8 7.2"/>
<line opacity="0.2" x1="76" y1="616.751" x2="746" y2="616.751" stroke="#1D2125" stroke-width="1.20074" stroke-dasharray="4.8 7.2"/>
<line opacity="0.2" x1="76" y1="677.751" x2="746" y2="677.751" stroke="#1D2125" stroke-width="1.20074" stroke-dasharray="4.8 7.2"/>
<rect opacity="0.3" x="106" y="251.352" width="60" height="427" rx="10" fill="#C4C4C4"/>
<rect x="106" y="420.352" width="60" height="258" rx="10" fill="#00A4D8"/>
<path opacity="0.34" d="M94.4448 732.352H97.0708V718.806L107.315 732.352H109.941V714.49H107.315V728.036L97.0708 714.49H94.4448V732.352ZM122.5 718.91V727.256C122.5 729.024 120.836 730.428 118.782 730.428C116.962 730.428 115.714 729.05 115.714 727.022V718.91H113.192V727.464C113.192 730.558 115.246 732.664 118.21 732.664C120.056 732.664 121.72 731.728 122.5 730.376V732.352H125.074V718.91H122.5ZM128.078 732.352H130.652V714.178H128.078V732.352ZM133.765 732.352H136.339V714.178H133.765V732.352ZM144.991 718.598C143.509 718.598 141.819 718.988 139.895 719.95L140.857 721.848C142.027 721.25 143.301 720.73 144.627 720.73C147.305 720.73 148.085 722.524 148.085 724.214V724.63C146.785 724.188 145.355 723.902 144.029 723.902C141.065 723.902 138.647 725.696 138.647 728.374C138.647 731 140.779 732.664 143.613 732.664C145.277 732.664 147.097 731.91 148.085 730.532V732.352H150.607V724.214C150.607 720.886 148.605 718.598 144.991 718.598ZM144.133 730.636C142.417 730.636 141.117 729.752 141.117 728.296C141.117 726.84 142.625 725.826 144.419 725.826C145.745 725.826 146.967 726.008 148.085 726.346V728.14C147.643 729.804 145.797 730.636 144.133 730.636ZM168.393 718.598C166.417 718.598 164.753 719.456 163.817 720.834C162.959 719.456 161.503 718.598 159.735 718.598C157.993 718.598 156.589 719.456 155.913 720.834V718.91H153.365V732.352H155.913V723.954C155.913 722.108 157.291 720.834 159.215 720.834C160.905 720.834 162.075 722.212 162.075 724.188V732.352H164.597V723.954C164.597 722.108 165.949 720.834 167.873 720.834C169.563 720.834 170.733 722.212 170.733 724.188V732.352H173.255V723.798C173.255 720.756 171.201 718.598 168.393 718.598Z" fill="#1D2125"/>
<path opacity="0.34" d="M133.496 286.664C137.968 286.664 141.114 282.842 141.114 277.408C141.114 272 137.968 268.178 133.496 268.178C129.024 268.178 125.878 272 125.878 277.408C125.878 282.842 129.024 286.664 133.496 286.664ZM133.496 284.246C130.61 284.246 128.556 281.412 128.556 277.408C128.556 273.404 130.61 270.596 133.496 270.596C136.408 270.596 138.436 273.404 138.436 277.408C138.436 281.412 136.408 284.246 133.496 284.246Z" fill="#1D2125"/>
<rect opacity="0.3" x="216" y="251.352" width="60" height="427" rx="10" fill="#C4C4C4"/>
<rect x="216" y="496.352" width="60" height="182" rx="10" fill="#00A4D8"/>
<path opacity="0.34" d="M242.406 716.934V714.49H229.276V732.352H242.406V729.908H231.928V724.474H241.366V722.03H231.928V716.934H242.406ZM245.364 732.352H247.938V714.178H245.364V732.352ZM252.247 716.674C253.105 716.674 253.781 715.946 253.781 715.114C253.781 714.308 253.105 713.58 252.247 713.58C251.389 713.58 250.687 714.308 250.687 715.114C250.687 715.946 251.389 716.674 252.247 716.674ZM250.973 732.352H253.521V718.91H250.973V732.352ZM263.035 729.934C262.749 730.22 262.229 730.428 261.657 730.428C260.903 730.428 260.279 729.752 260.279 728.816V721.094H263.451V718.91H260.279V715.218H257.757V718.91H255.729V721.094H257.757V728.998C257.757 731.156 259.213 732.664 261.293 732.664C262.255 732.664 263.243 732.3 263.971 731.702L263.035 729.934Z" fill="#1D2125"/>
<path opacity="0.34" d="M245.875 286.664C249.749 286.664 252.479 284.298 252.479 280.684C252.479 277.122 249.775 275.094 246.577 275.094C244.991 275.094 243.795 275.614 242.859 276.238L243.015 270.934H251.491V268.49H240.519L240.259 277.824L242.105 278.656C243.171 277.85 244.445 277.356 245.901 277.356C248.215 277.356 249.827 278.734 249.827 280.788C249.827 282.79 248.241 284.35 245.927 284.35C244.055 284.35 242.365 283.414 241.013 281.984L239.375 283.856C240.909 285.52 243.041 286.664 245.875 286.664Z" fill="#1D2125"/>
<rect opacity="0.3" x="326" y="251.352" width="60" height="427" rx="10" fill="#C4C4C4"/>
<rect x="326" y="342.352" width="60" height="336" rx="10" fill="#00A4D8"/>
<path opacity="0.34" d="M341.45 732.638C345.662 732.638 347.95 730.35 347.95 727.334C347.95 724.136 345.48 722.94 341.918 722.108C338.98 721.406 337.446 720.834 337.446 719.17C337.446 717.74 338.85 716.466 340.852 716.466C342.672 716.466 344.466 717.272 345.974 718.65L347.482 716.674C345.766 715.166 343.712 714.152 340.956 714.152C337.368 714.152 334.768 716.414 334.768 719.404C334.768 722.628 337.186 723.72 340.826 724.578C343.816 725.254 345.298 725.904 345.298 727.594C345.298 729.024 344.024 730.324 341.554 730.324C339.136 730.324 337.264 729.336 335.678 727.828L334.092 729.778C335.99 731.598 338.46 732.638 341.45 732.638ZM356.871 730.532C354.505 730.532 352.841 728.816 352.529 726.45H363.241C363.241 721.666 360.849 718.598 356.741 718.598C353.023 718.598 350.007 721.562 350.007 725.592C350.007 729.726 353.205 732.664 356.949 732.664C358.847 732.664 361.187 731.858 362.383 730.584L360.875 728.998C360.017 729.882 358.353 730.532 356.871 730.532ZM356.819 720.73C359.159 720.73 360.485 722.394 360.745 724.552H352.555C352.945 722.238 354.661 720.73 356.819 720.73ZM375.833 714.178V721.198C374.793 719.586 373.129 718.598 371.075 718.598C367.513 718.598 364.887 721.51 364.887 725.618C364.887 729.752 367.513 732.664 371.075 732.664C373.129 732.664 374.793 731.676 375.833 730.064V732.352H378.407V714.178H375.833ZM371.673 730.428C369.229 730.428 367.487 728.426 367.487 725.618C367.487 722.81 369.229 720.834 371.673 720.834C374.117 720.834 375.833 722.81 375.833 725.618C375.833 728.426 374.117 730.428 371.673 730.428Z" fill="#1D2125"/>
<path opacity="0.34" d="M347.788 286.352H350.414V268.49H348.308L343.576 271.688L344.694 273.586L347.788 271.61V286.352ZM361.485 286.664C365.957 286.664 369.103 282.842 369.103 277.408C369.103 272 365.957 268.178 361.485 268.178C357.013 268.178 353.867 272 353.867 277.408C353.867 282.842 357.013 286.664 361.485 286.664ZM361.485 284.246C358.599 284.246 356.545 281.412 356.545 277.408C356.545 273.404 358.599 270.596 361.485 270.596C364.397 270.596 366.425 273.404 366.425 277.408C366.425 281.412 364.397 284.246 361.485 284.246Z" fill="#1D2125"/>
<rect opacity="0.3" x="436" y="251.352" width="60" height="427" rx="10" fill="#C4C4C4"/>
<rect x="436" y="402.352" width="60" height="276" rx="10" fill="#00A4D8"/>
<path opacity="0.34" d="M435.855 729.908V714.49H433.229V732.352H445.319V729.908H435.855ZM453.535 718.598C452.053 718.598 450.363 718.988 448.439 719.95L449.401 721.848C450.571 721.25 451.845 720.73 453.171 720.73C455.849 720.73 456.629 722.524 456.629 724.214V724.63C455.329 724.188 453.899 723.902 452.573 723.902C449.609 723.902 447.191 725.696 447.191 728.374C447.191 731 449.323 732.664 452.157 732.664C453.821 732.664 455.641 731.91 456.629 730.532V732.352H459.151V724.214C459.151 720.886 457.149 718.598 453.535 718.598ZM452.677 730.636C450.961 730.636 449.661 729.752 449.661 728.296C449.661 726.84 451.169 725.826 452.963 725.826C454.289 725.826 455.511 726.008 456.629 726.346V728.14C456.187 729.804 454.341 730.636 452.677 730.636ZM468.331 732.664C470.333 732.664 472.075 731.832 473.375 730.506L471.633 728.92C470.801 729.856 469.605 730.428 468.331 730.428C465.887 730.428 463.859 728.244 463.859 725.618C463.859 723.018 465.887 720.834 468.331 720.834C469.579 720.834 470.749 721.38 471.555 722.29L473.297 720.678C472.023 719.404 470.281 718.598 468.357 718.598C464.509 718.598 461.259 721.796 461.259 725.618C461.259 729.44 464.509 732.664 468.331 732.664ZM484.618 718.91V727.256C484.618 729.024 482.954 730.428 480.9 730.428C479.08 730.428 477.832 729.05 477.832 727.022V718.91H475.31V727.464C475.31 730.558 477.364 732.664 480.328 732.664C482.174 732.664 483.838 731.728 484.618 730.376V732.352H487.192V718.91H484.618ZM494.855 732.664C497.793 732.664 499.951 731.052 499.951 728.504C499.951 725.826 497.611 725.098 495.375 724.448C493.113 723.746 492.203 723.434 492.203 722.394C492.203 721.276 493.295 720.678 494.647 720.678C495.869 720.678 497.221 721.146 498.521 721.978L499.613 720.158C498.157 719.196 496.389 718.598 494.647 718.598C491.813 718.598 489.759 720.21 489.759 722.68C489.759 724.864 491.293 725.748 494.387 726.606C496.103 727.074 497.507 727.49 497.507 728.764C497.507 729.856 496.467 730.584 494.881 730.584C493.399 730.584 491.787 729.986 490.305 728.894L489.109 730.662C490.747 731.962 492.879 732.664 494.855 732.664Z" fill="#1D2125"/>
<path opacity="0.34" d="M458.52 286.352H461.146V268.49H459.04L454.308 271.688L455.426 273.586L458.52 271.61V286.352ZM470.864 286.664C474.738 286.664 477.468 284.298 477.468 280.684C477.468 277.122 474.764 275.094 471.566 275.094C469.98 275.094 468.784 275.614 467.848 276.238L468.004 270.934H476.48V268.49H465.508L465.248 277.824L467.094 278.656C468.16 277.85 469.434 277.356 470.89 277.356C473.204 277.356 474.816 278.734 474.816 280.788C474.816 282.79 473.23 284.35 470.916 284.35C469.044 284.35 467.354 283.414 466.002 281.984L464.364 283.856C465.898 285.52 468.03 286.664 470.864 286.664Z" fill="#1D2125"/>
<rect opacity="0.3" x="546" y="251.352" width="60" height="427" rx="10" fill="#C4C4C4"/>
<rect x="546" y="574.352" width="60" height="104" rx="10" fill="#00A4D8"/>
<path opacity="0.34" d="M567.375 732.352H570.001V714.49H567.375V732.352ZM580.296 718.598C578.424 718.598 576.76 719.534 575.98 720.886V718.91H573.432V732.352H575.98V724.006C575.98 722.238 577.644 720.834 579.698 720.834C581.518 720.834 582.792 722.212 582.792 724.24V732.352H585.314V723.798C585.314 720.704 583.26 718.598 580.296 718.598Z" fill="#1D2125"/>
<path opacity="0.34" d="M560.542 286.352H573.256V283.908H564.702L568.888 280.372C571.956 277.876 573.1 275.978 573.1 273.586C573.1 270.336 570.448 268.178 567.12 268.178C564.286 268.178 562.18 269.478 560.62 271.636L562.388 273.196C563.636 271.584 565.066 270.544 567.016 270.544C568.784 270.544 570.396 271.688 570.396 273.638C570.396 275.25 569.486 276.784 567.094 278.786L560.542 284.194V286.352ZM583.727 286.664C588.199 286.664 591.345 282.842 591.345 277.408C591.345 272 588.199 268.178 583.727 268.178C579.255 268.178 576.109 272 576.109 277.408C576.109 282.842 579.255 286.664 583.727 286.664ZM583.727 284.246C580.841 284.246 578.787 281.412 578.787 277.408C578.787 273.404 580.841 270.596 583.727 270.596C586.639 270.596 588.667 273.404 588.667 277.408C588.667 281.412 586.639 284.246 583.727 284.246Z" fill="#1D2125"/>
<rect opacity="0.3" x="656" y="251.352" width="60" height="427" rx="10" fill="#C4C4C4"/>
<rect x="656" y="496.352" width="60" height="182" rx="10" fill="#00A4D8"/>
<path opacity="0.34" d="M667.186 732.352H669.812V718.806L680.056 732.352H682.682V714.49H680.056V728.036L669.812 714.49H667.186V732.352ZM687.415 716.674C688.273 716.674 688.949 715.946 688.949 715.114C688.949 714.308 688.273 713.58 687.415 713.58C686.557 713.58 685.855 714.308 685.855 715.114C685.855 715.946 686.557 716.674 687.415 716.674ZM686.141 732.352H688.689V718.91H686.141V732.352ZM696.388 732.664C699.326 732.664 701.484 731.052 701.484 728.504C701.484 725.826 699.144 725.098 696.908 724.448C694.646 723.746 693.736 723.434 693.736 722.394C693.736 721.276 694.828 720.678 696.18 720.678C697.402 720.678 698.754 721.146 700.054 721.978L701.146 720.158C699.69 719.196 697.922 718.598 696.18 718.598C693.346 718.598 691.292 720.21 691.292 722.68C691.292 724.864 692.826 725.748 695.92 726.606C697.636 727.074 699.04 727.49 699.04 728.764C699.04 729.856 698 730.584 696.414 730.584C694.932 730.584 693.32 729.986 691.838 728.894L690.642 730.662C692.28 731.962 694.412 732.664 696.388 732.664ZM705.036 716.674C705.894 716.674 706.57 715.946 706.57 715.114C706.57 714.308 705.894 713.58 705.036 713.58C704.178 713.58 703.476 714.308 703.476 715.114C703.476 715.946 704.178 716.674 705.036 716.674ZM703.762 732.352H706.31V718.91H703.762V732.352Z" fill="#1D2125"/>
<path opacity="0.34" d="M671.774 286.352H684.488V283.908H675.934L680.12 280.372C683.188 277.876 684.332 275.978 684.332 273.586C684.332 270.336 681.68 268.178 678.352 268.178C675.518 268.178 673.412 269.478 671.852 271.636L673.62 273.196C674.868 271.584 676.298 270.544 678.248 270.544C680.016 270.544 681.628 271.688 681.628 273.638C681.628 275.25 680.718 276.784 678.326 278.786L671.774 284.194V286.352ZM693.607 286.664C697.481 286.664 700.211 284.298 700.211 280.684C700.211 277.122 697.507 275.094 694.309 275.094C692.723 275.094 691.527 275.614 690.591 276.238L690.747 270.934H699.223V268.49H688.251L687.991 277.824L689.837 278.656C690.903 277.85 692.177 277.356 693.633 277.356C695.947 277.356 697.559 278.734 697.559 280.788C697.559 282.79 695.973 284.35 693.659 284.35C691.787 284.35 690.097 283.414 688.745 281.984L687.107 283.856C688.641 285.52 690.773 286.664 693.607 286.664Z" fill="#1D2125"/>
<path opacity="0.3" d="M88.32 139.225L83.54 150.385L78.74 139.225H76.5L82.42 152.965H84.64L90.56 139.225H88.32ZM92.9052 140.905C93.5652 140.905 94.0852 140.345 94.0852 139.705C94.0852 139.085 93.5652 138.525 92.9052 138.525C92.2452 138.525 91.7052 139.085 91.7052 139.705C91.7052 140.345 92.2452 140.905 92.9052 140.905ZM91.9252 152.965H93.8852V142.625H91.9252V152.965ZM99.9234 152.965H101.783L106.143 142.625H104.003L100.843 150.665L97.6234 142.625H95.4834L99.9234 152.965ZM112.155 151.565C110.335 151.565 109.055 150.245 108.815 148.425H117.055C117.055 144.745 115.215 142.385 112.055 142.385C109.195 142.385 106.875 144.665 106.875 147.765C106.875 150.945 109.335 153.205 112.215 153.205C113.675 153.205 115.475 152.585 116.395 151.605L115.235 150.385C114.575 151.065 113.295 151.565 112.155 151.565ZM112.115 144.025C113.915 144.025 114.935 145.305 115.135 146.965H108.835C109.135 145.185 110.455 144.025 112.115 144.025ZM120.741 144.645V142.625H118.781V152.965H120.741V147.465C120.741 145.465 122.321 144.105 124.601 144.105V142.385C122.801 142.385 121.381 143.265 120.741 144.645ZM128.241 144.645V142.625H126.281V152.965H128.241V147.465C128.241 145.465 129.821 144.105 132.101 144.105V142.385C130.301 142.385 128.881 143.265 128.241 144.645ZM136.987 142.385C135.847 142.385 134.547 142.685 133.067 143.425L133.807 144.885C134.707 144.425 135.687 144.025 136.707 144.025C138.767 144.025 139.367 145.405 139.367 146.705V147.025C138.367 146.685 137.267 146.465 136.247 146.465C133.967 146.465 132.107 147.845 132.107 149.905C132.107 151.925 133.747 153.205 135.927 153.205C137.207 153.205 138.607 152.625 139.367 151.565V152.965H141.307V146.705C141.307 144.145 139.767 142.385 136.987 142.385ZM136.327 151.645C135.007 151.645 134.007 150.965 134.007 149.845C134.007 148.725 135.167 147.945 136.547 147.945C137.567 147.945 138.507 148.085 139.367 148.345V149.725C139.027 151.005 137.607 151.645 136.327 151.645ZM153.957 151.105C153.737 151.325 153.337 151.485 152.897 151.485C152.317 151.485 151.837 150.965 151.837 150.245V144.305H154.277V142.625H151.837V139.785H149.897V142.625H148.337V144.305H149.897V150.385C149.897 152.045 151.017 153.205 152.617 153.205C153.357 153.205 154.117 152.925 154.677 152.465L153.957 151.105ZM158.338 144.645V142.625H156.378V152.965H158.338V147.465C158.338 145.465 159.918 144.105 162.198 144.105V142.385C160.398 142.385 158.978 143.265 158.338 144.645ZM164.858 140.905C165.518 140.905 166.038 140.345 166.038 139.705C166.038 139.085 165.518 138.525 164.858 138.525C164.198 138.525 163.658 139.085 163.658 139.705C163.658 140.345 164.198 140.905 164.858 140.905ZM163.878 152.965H165.838V142.625H163.878V152.965ZM171.76 153.205C174.02 153.205 175.68 151.965 175.68 150.005C175.68 147.945 173.88 147.385 172.16 146.885C170.42 146.345 169.72 146.105 169.72 145.305C169.72 144.445 170.56 143.985 171.6 143.985C172.54 143.985 173.58 144.345 174.58 144.985L175.42 143.585C174.3 142.845 172.94 142.385 171.6 142.385C169.42 142.385 167.84 143.625 167.84 145.525C167.84 147.205 169.02 147.885 171.4 148.545C172.72 148.905 173.8 149.225 173.8 150.205C173.8 151.045 173 151.605 171.78 151.605C170.64 151.605 169.4 151.145 168.26 150.305L167.34 151.665C168.6 152.665 170.24 153.205 171.76 153.205ZM181.868 151.105C181.648 151.325 181.248 151.485 180.808 151.485C180.228 151.485 179.748 150.965 179.748 150.245V144.305H182.188V142.625H179.748V139.785H177.808V142.625H176.248V144.305H177.808V150.385C177.808 152.045 178.928 153.205 180.528 153.205C181.268 153.205 182.028 152.925 182.588 152.465L181.868 151.105ZM185.268 140.905C185.928 140.905 186.448 140.345 186.448 139.705C186.448 139.085 185.928 138.525 185.268 138.525C184.608 138.525 184.068 139.085 184.068 139.705C184.068 140.345 184.608 140.905 185.268 140.905ZM184.288 152.965H186.248V142.625H184.288V152.965ZM196.487 142.625V144.385C195.687 143.145 194.407 142.385 192.827 142.385C190.087 142.385 188.067 144.625 188.067 147.785C188.067 150.965 190.087 153.205 192.827 153.205C194.407 153.205 195.687 152.445 196.487 151.205V156.405H198.467V142.625H196.487ZM193.287 151.485C191.407 151.485 190.067 149.945 190.067 147.785C190.067 145.625 191.407 144.105 193.287 144.105C195.167 144.105 196.487 145.625 196.487 147.785C196.487 149.945 195.167 151.485 193.287 151.485ZM207.812 142.625V149.045C207.812 150.405 206.532 151.485 204.952 151.485C203.552 151.485 202.592 150.425 202.592 148.865V142.625H200.652V149.205C200.652 151.585 202.232 153.205 204.512 153.205C205.932 153.205 207.212 152.485 207.812 151.445V152.965H209.792V142.625H207.812ZM216.842 151.565C215.022 151.565 213.742 150.245 213.502 148.425H221.742C221.742 144.745 219.902 142.385 216.742 142.385C213.882 142.385 211.562 144.665 211.562 147.765C211.562 150.945 214.022 153.205 216.902 153.205C218.362 153.205 220.162 152.585 221.082 151.605L219.922 150.385C219.262 151.065 217.982 151.565 216.842 151.565ZM216.802 144.025C218.602 144.025 219.622 145.305 219.822 146.965H213.522C213.822 145.185 215.142 144.025 216.802 144.025Z" fill="#1D2125"/>
<path d="M78.6873 108.352H82.2587V89.9291L96.1904 108.352H99.7618V84.0594H96.1904V102.482L82.2587 84.0594H78.6873V108.352ZM112.953 105.876C109.735 105.876 107.472 103.543 107.048 100.325H121.616C121.616 93.8187 118.363 89.6462 112.776 89.6462C107.719 89.6462 103.618 93.6772 103.618 99.158C103.618 104.78 107.967 108.776 113.059 108.776C115.64 108.776 118.822 107.68 120.449 105.947L118.398 103.79C117.231 104.992 114.968 105.876 112.953 105.876ZM112.882 92.5457C116.064 92.5457 117.868 94.8088 118.221 97.7436H107.083C107.613 94.5966 109.947 92.5457 112.882 92.5457ZM138.74 90.0705V93.1822C137.326 90.9899 135.063 89.6462 132.269 89.6462C127.425 89.6462 123.854 93.6065 123.854 99.1934C123.854 104.816 127.425 108.776 132.269 108.776C135.063 108.776 137.326 107.432 138.74 105.24V114.433H142.241V90.0705H138.74ZM133.083 105.735C129.759 105.735 127.39 103.012 127.39 99.1934C127.39 95.3745 129.759 92.6872 133.083 92.6872C136.406 92.6872 138.74 95.3745 138.74 99.1934C138.74 103.012 136.406 105.735 133.083 105.735ZM158.763 90.0705V101.421C158.763 103.826 156.5 105.735 153.706 105.735C151.231 105.735 149.534 103.861 149.534 101.103V90.0705H146.104V101.704C146.104 105.912 148.898 108.776 152.929 108.776C155.439 108.776 157.702 107.503 158.763 105.664V108.352H162.264V90.0705H158.763ZM174.729 105.876C171.511 105.876 169.248 103.543 168.824 100.325H183.392C183.392 93.8187 180.139 89.6462 174.552 89.6462C169.495 89.6462 165.394 93.6772 165.394 99.158C165.394 104.78 169.743 108.776 174.835 108.776C177.416 108.776 180.598 107.68 182.225 105.947L180.174 103.79C179.007 104.992 176.744 105.876 174.729 105.876ZM174.658 92.5457C177.84 92.5457 179.644 94.8088 179.997 97.7436H168.859C169.389 94.5966 171.723 92.5457 174.658 92.5457ZM210.219 83.6351V93.1822C208.805 90.9899 206.542 89.6462 203.749 89.6462C198.904 89.6462 195.333 93.6065 195.333 99.1934C195.333 104.816 198.904 108.776 203.749 108.776C206.542 108.776 208.805 107.432 210.219 105.24V108.352H213.72V83.6351H210.219ZM204.562 105.735C201.238 105.735 198.869 103.012 198.869 99.1934C198.869 95.3745 201.238 92.6872 204.562 92.6872C207.886 92.6872 210.219 95.3745 210.219 99.1934C210.219 103.012 207.886 105.735 204.562 105.735ZM219.599 87.0296C220.766 87.0296 221.685 86.0395 221.685 84.908C221.685 83.8119 220.766 82.8218 219.599 82.8218C218.432 82.8218 217.477 83.8119 217.477 84.908C217.477 86.0395 218.432 87.0296 219.599 87.0296ZM217.866 108.352H221.332V90.0705H217.866V108.352ZM239.291 90.0705V92.97C237.912 90.9192 235.579 89.6462 232.856 89.6462C228.012 89.6462 224.511 93.2176 224.511 98.3094C224.511 103.401 228.012 107.008 232.856 107.008C235.579 107.008 237.842 105.77 239.291 103.684V106.336C239.291 109.518 236.922 111.393 233.033 111.393C230.805 111.393 228.613 110.65 227.269 109.377L225.89 111.994C227.623 113.408 230.451 114.433 233.528 114.433C238.938 114.433 242.792 111.11 242.792 106.407V90.0705H239.291ZM233.704 103.967C230.487 103.967 228.153 101.633 228.153 98.3094C228.153 95.0209 230.487 92.6872 233.704 92.6872C236.993 92.6872 239.291 95.0209 239.291 98.3094C239.291 101.633 236.993 103.967 233.704 103.967ZM256.173 89.6462C253.627 89.6462 251.364 90.9192 250.303 92.7579V90.0705H246.838V108.352H250.303V97.0011C250.303 94.5966 252.566 92.6872 255.36 92.6872C257.835 92.6872 259.567 94.5612 259.567 97.3193V108.352H262.997V96.7182C262.997 92.5104 260.204 89.6462 256.173 89.6462ZM268.495 87.0296C269.662 87.0296 270.581 86.0395 270.581 84.908C270.581 83.8119 269.662 82.8218 268.495 82.8218C267.328 82.8218 266.373 83.8119 266.373 84.908C266.373 86.0395 267.328 87.0296 268.495 87.0296ZM266.762 108.352H270.228V90.0705H266.762V108.352ZM280.698 108.776C284.693 108.776 287.628 106.584 287.628 103.118C287.628 99.4763 284.446 98.4862 281.405 97.6022C278.329 96.6475 277.091 96.2231 277.091 94.8088C277.091 93.2883 278.576 92.475 280.415 92.475C282.077 92.475 283.915 93.1115 285.683 94.243L287.168 91.7678C285.188 90.4595 282.784 89.6462 280.415 89.6462C276.561 89.6462 273.767 91.8385 273.767 95.1977C273.767 98.1679 275.853 99.3702 280.061 100.537C282.395 101.174 284.304 101.739 284.304 103.472C284.304 104.957 282.89 105.947 280.733 105.947C278.717 105.947 276.525 105.134 274.51 103.649L272.883 106.053C275.111 107.821 278.01 108.776 280.698 108.776ZM295.891 108.776C299.887 108.776 302.822 106.584 302.822 103.118C302.822 99.4763 299.639 98.4862 296.598 97.6022C293.522 96.6475 292.285 96.2231 292.285 94.8088C292.285 93.2883 293.77 92.475 295.608 92.475C297.27 92.475 299.109 93.1115 300.877 94.243L302.362 91.7678C300.382 90.4595 297.978 89.6462 295.608 89.6462C291.754 89.6462 288.961 91.8385 288.961 95.1977C288.961 98.1679 291.047 99.3702 295.255 100.537C297.589 101.174 299.498 101.739 299.498 103.472C299.498 104.957 298.084 105.947 295.927 105.947C293.911 105.947 291.719 105.134 289.703 103.649L288.077 106.053C290.304 107.821 293.204 108.776 295.891 108.776ZM307.653 87.0296C308.82 87.0296 309.739 86.0395 309.739 84.908C309.739 83.8119 308.82 82.8218 307.653 82.8218C306.486 82.8218 305.532 83.8119 305.532 84.908C305.532 86.0395 306.486 87.0296 307.653 87.0296ZM305.92 108.352H309.386V90.0705H305.92V108.352ZM333.852 89.6462C331.164 89.6462 328.901 90.8131 327.628 92.6872C326.462 90.8131 324.481 89.6462 322.077 89.6462C319.708 89.6462 317.798 90.8131 316.879 92.6872V90.0705H313.414V108.352H316.879V96.9303C316.879 94.4198 318.753 92.6872 321.37 92.6872C323.668 92.6872 325.259 94.5612 325.259 97.2486V108.352H328.689V96.9303C328.689 94.4198 330.528 92.6872 333.145 92.6872C335.443 92.6872 337.034 94.5612 337.034 97.2486V108.352H340.464V96.7182C340.464 92.5811 337.671 89.6462 333.852 89.6462Z" fill="#1D2125"/>
<rect x="546" y="82.3516" width="190" height="70" rx="10" fill="#1DB350"/>
<path d="M625.027 107.383V104.059H607.17V128.352H610.777V117.779H623.612V114.455H610.777V107.383H625.027ZM637.119 125.876C633.901 125.876 631.638 123.543 631.214 120.325H645.782C645.782 113.819 642.529 109.646 636.942 109.646C631.886 109.646 627.784 113.677 627.784 119.158C627.784 124.78 632.133 128.776 637.225 128.776C639.806 128.776 642.989 127.68 644.615 125.947L642.564 123.79C641.398 124.992 639.134 125.876 637.119 125.876ZM637.048 112.546C640.231 112.546 642.034 114.809 642.388 117.744H631.249C631.78 114.597 634.113 112.546 637.048 112.546ZM648.939 128.352H652.44V103.635H648.939V128.352ZM658.301 107.03C659.468 107.03 660.387 106.04 660.387 104.908C660.387 103.812 659.468 102.822 658.301 102.822C657.134 102.822 656.179 103.812 656.179 104.908C656.179 106.04 657.134 107.03 658.301 107.03ZM656.568 128.352H660.034V110.071H656.568V128.352ZM670.504 128.776C674.499 128.776 677.434 126.584 677.434 123.118C677.434 119.476 674.252 118.486 671.211 117.602C668.134 116.647 666.897 116.223 666.897 114.809C666.897 113.288 668.382 112.475 670.221 112.475C671.883 112.475 673.721 113.111 675.489 114.243L676.974 111.768C674.994 110.46 672.59 109.646 670.221 109.646C666.367 109.646 663.573 111.839 663.573 115.198C663.573 118.168 665.659 119.37 669.867 120.537C672.201 121.174 674.11 121.739 674.11 123.472C674.11 124.957 672.696 125.947 670.539 125.947C668.523 125.947 666.331 125.134 664.316 123.649L662.689 126.053C664.917 127.821 667.816 128.776 670.504 128.776Z" fill="white"/>
</g>
<defs>
<filter id="filter0_d" x="0" y="0.351562" width="822" height="822" filterUnits="userSpaceOnUse" color-interpolation-filters="sRGB">
<feFlood flood-opacity="0" result="BackgroundImageFix"/>
<feColorMatrix in="SourceAlpha" type="matrix" values="0 0 0 0 0 0 0 0 0 0 0 0 0 0 0 0 0 0 127 0" result="hardAlpha"/>
<feOffset dy="4"/>
<feGaussianBlur stdDeviation="18"/>
<feComposite in2="hardAlpha" operator="out"/>
<feColorMatrix type="matrix" values="0 0 0 0 0 0 0 0 0 0 0 0 0 0 0 0 0 0 0.05 0"/>
<feBlend mode="normal" in2="BackgroundImageFix" result="effect1_dropShadow"/>
<feBlend mode="normal" in="SourceGraphic" in2="effect1_dropShadow" result="shape"/>
</filter>
</defs>
</svg>
