<svg width="572" height="525" viewBox="0 0 572 525" fill="none" xmlns="http://www.w3.org/2000/svg">
<line opacity="0.2" x1="137.013" y1="459.68" x2="137.013" y2="0.351288" stroke="black" stroke-width="1.17777" stroke-dasharray="4.71 7.07"/>
<line opacity="0.2" x1="433.809" y1="459.68" x2="433.809" y2="0.351288" stroke="black" stroke-width="1.17777" stroke-dasharray="4.71 7.07"/>
<line opacity="0.2" x1="78.124" y1="459.68" x2="78.124" y2="0.351288" stroke="black" stroke-width="1.17777" stroke-dasharray="4.71 7.07"/>
<line opacity="0.2" x1="314.855" y1="459.68" x2="314.855" y2="0.351288" stroke="black" stroke-width="1.17777" stroke-dasharray="4.71 7.07"/>
<line opacity="0.2" x1="19.2353" y1="459.68" x2="19.2353" y2="0.351288" stroke="black" stroke-width="1.17777" stroke-dasharray="4.71 7.07"/>
<line opacity="0.2" x1="197.078" y1="459.68" x2="197.078" y2="0.351288" stroke="black" stroke-width="1.17777" stroke-dasharray="4.71 7.07"/>
<line opacity="0.2" x1="255.966" y1="459.68" x2="255.966" y2="0.351288" stroke="black" stroke-width="1.17777" stroke-dasharray="4.71 7.07"/>
<line opacity="0.2" x1="492.698" y1="459.68" x2="492.698" y2="0.351288" stroke="black" stroke-width="1.17777" stroke-dasharray="4.71 7.07"/>
<line opacity="0.2" x1="373.743" y1="459.68" x2="373.743" y2="0.351288" stroke="black" stroke-width="1.17777" stroke-dasharray="4.71 7.07"/>
<line opacity="0.2" x1="551.586" y1="459.68" x2="551.586" y2="0.351288" stroke="black" stroke-width="1.17777" stroke-dasharray="4.71 7.07"/>
<path d="M6.86919 343.081C21.8446 342.607 37.7403 332.885 52.3719 323.936C54.7205 322.499 57.0423 321.063 59.3439 319.639C75.2969 309.768 90.2826 300.496 106.562 295.971C114.468 293.553 122.744 292.264 131.216 290.944C140.89 289.437 150.821 287.891 160.751 284.578C166.511 282.816 172.467 280.336 178.486 277.829C190.162 272.967 202.073 268.006 213.248 268.006C225.099 268.006 236.265 272.618 247.618 277.307C254.109 279.988 260.661 282.694 267.437 284.578C284.372 290.792 302.999 290.792 319.934 276.292C327.769 270.628 335.605 262.399 343.314 254.302C353.933 243.149 364.312 232.248 374.123 228.648C386.566 225.189 398.253 231.434 410.193 237.814C416.129 240.986 422.128 244.192 428.313 246.255C436.78 248.845 445.671 248.845 454.561 248.845C463.452 248.845 472.342 248.845 480.809 251.434C488.653 253.615 496.496 257.815 504.213 261.948C514.824 267.63 525.195 273.185 534.999 273.185C544.313 273.185 553.204 269.042 562.094 264.899C563.106 264.427 564.118 263.956 565.13 263.49" stroke="#CB5B66" stroke-width="11.7777" stroke-linecap="round"/>
<circle opacity="0.2" cx="373.154" cy="233.548" r="49.4661" fill="#F39800"/>
<path opacity="0.34" d="M402.548 512.408C404.857 512.408 407 511.418 408.531 509.864L406.859 508.262C405.752 509.44 404.221 510.217 402.548 510.217C399.321 510.217 396.589 507.39 396.589 504.022C396.589 500.677 399.321 497.85 402.548 497.85C404.221 497.85 405.752 498.628 406.859 499.806L408.531 498.204C407 496.626 404.857 495.66 402.548 495.66C398.026 495.66 394.163 499.476 394.163 504.022C394.163 508.568 398.026 512.408 402.548 512.408ZM419.089 499.947V507.508C419.089 509.11 417.582 510.382 415.721 510.382C414.072 510.382 412.941 509.133 412.941 507.296V499.947H410.656V507.697C410.656 510.5 412.517 512.408 415.203 512.408C416.875 512.408 418.383 511.56 419.089 510.335V512.125H421.421V499.947H419.089ZM426.38 502.326V499.947H424.072V512.125H426.38V505.647C426.38 503.292 428.241 501.69 430.926 501.69V499.664C428.806 499.664 427.134 500.701 426.38 502.326ZM436.805 512.408C439.467 512.408 441.422 510.947 441.422 508.639C441.422 506.213 439.302 505.553 437.276 504.964C435.227 504.328 434.403 504.046 434.403 503.103C434.403 502.09 435.392 501.549 436.617 501.549C437.724 501.549 438.949 501.973 440.127 502.726L441.116 501.078C439.797 500.206 438.195 499.664 436.617 499.664C434.049 499.664 432.189 501.125 432.189 503.362C432.189 505.341 433.578 506.142 436.381 506.919C437.936 507.343 439.208 507.72 439.208 508.874C439.208 509.864 438.266 510.523 436.829 510.523C435.486 510.523 434.026 509.981 432.683 508.992L431.6 510.594C433.084 511.772 435.015 512.408 436.805 512.408ZM451.731 499.947V507.508C451.731 509.11 450.223 510.382 448.362 510.382C446.714 510.382 445.583 509.133 445.583 507.296V499.947H443.298V507.697C443.298 510.5 445.159 512.408 447.844 512.408C449.517 512.408 451.024 511.56 451.731 510.335V512.125H454.063V499.947H451.731ZM461.005 512.408C463.667 512.408 465.622 510.947 465.622 508.639C465.622 506.213 463.502 505.553 461.476 504.964C459.427 504.328 458.602 504.046 458.602 503.103C458.602 502.09 459.591 501.549 460.816 501.549C461.923 501.549 463.148 501.973 464.326 502.726L465.315 501.078C463.996 500.206 462.395 499.664 460.816 499.664C458.249 499.664 456.388 501.125 456.388 503.362C456.388 505.341 457.778 506.142 460.581 506.919C462.135 507.343 463.407 507.72 463.407 508.874C463.407 509.864 462.465 510.523 461.028 510.523C459.686 510.523 458.225 509.981 456.883 508.992L455.799 510.594C457.283 511.772 459.215 512.408 461.005 512.408Z" fill="#1D2125"/>
<path opacity="0.34" d="M165.777 512.384C169.593 512.384 171.666 510.311 171.666 507.579C171.666 504.682 169.428 503.598 166.201 502.844C163.539 502.208 162.15 501.69 162.15 500.182C162.15 498.887 163.422 497.733 165.235 497.733C166.884 497.733 168.51 498.463 169.876 499.711L171.242 497.921C169.687 496.555 167.826 495.636 165.33 495.636C162.079 495.636 159.723 497.686 159.723 500.394C159.723 503.315 161.914 504.305 165.212 505.082C167.921 505.694 169.263 506.283 169.263 507.814C169.263 509.11 168.109 510.288 165.871 510.288C163.681 510.288 161.985 509.393 160.548 508.026L159.111 509.793C160.831 511.442 163.068 512.384 165.777 512.384ZM179.748 510.476C177.605 510.476 176.097 508.921 175.814 506.778H185.519C185.519 502.444 183.352 499.664 179.63 499.664C176.262 499.664 173.53 502.35 173.53 506.001C173.53 509.746 176.427 512.408 179.819 512.408C181.538 512.408 183.658 511.677 184.742 510.523L183.376 509.086C182.598 509.887 181.091 510.476 179.748 510.476ZM179.701 501.596C181.821 501.596 183.022 503.103 183.258 505.058H175.838C176.191 502.962 177.746 501.596 179.701 501.596ZM196.927 495.66V502.02C195.985 500.559 194.477 499.664 192.616 499.664C189.389 499.664 187.01 502.302 187.01 506.024C187.01 509.769 189.389 512.408 192.616 512.408C194.477 512.408 195.985 511.513 196.927 510.052V512.125H199.259V495.66H196.927ZM193.158 510.382C190.944 510.382 189.366 508.568 189.366 506.024C189.366 503.48 190.944 501.69 193.158 501.69C195.372 501.69 196.927 503.48 196.927 506.024C196.927 508.568 195.372 510.382 193.158 510.382Z" fill="#1D2125"/>
<path d="M248.859 513.947H249.792V498.012L256.943 511.46L264.095 498.012V513.947H265.027V496.147H264.095L256.943 509.594L249.792 496.147H248.859V513.947ZM275.814 514.258C279.571 514.258 282.733 511.045 282.733 507.236C282.733 503.427 279.571 500.24 275.814 500.24C272.057 500.24 268.87 503.427 268.87 507.236C268.87 511.045 272.057 514.258 275.814 514.258ZM275.814 513.325C272.55 513.325 269.803 510.553 269.803 507.236C269.803 503.946 272.55 501.173 275.814 501.173C279.053 501.173 281.8 503.946 281.8 507.236C281.8 510.553 279.053 513.325 275.814 513.325ZM285.784 513.947H286.717V495.836H285.784V513.947ZM296.352 513.325C293.45 513.325 290.937 510.786 290.73 507.677H302.726C302.726 503.22 300.187 500.24 296.352 500.24C292.673 500.24 289.771 503.298 289.771 507.21C289.771 511.045 292.777 514.258 296.352 514.258C298.503 514.258 300.835 513.403 301.949 512.185L301.301 511.486C300.187 512.704 298.27 513.325 296.352 513.325ZM296.352 501.173C299.513 501.173 301.638 503.402 301.794 506.744H290.73C290.937 503.609 293.347 501.173 296.352 501.173ZM309.33 514.258C311.844 514.258 313.969 512.652 313.969 510.734C313.969 508.843 312.725 507.703 309.615 506.718C306.765 505.811 305.625 504.904 305.625 503.557C305.625 502.261 307.232 501.173 309.123 501.173C310.496 501.173 312.051 501.666 313.347 502.469L313.917 501.743C312.466 500.81 310.704 500.24 309.123 500.24C306.713 500.24 304.692 501.795 304.692 503.661C304.692 505.449 305.962 506.563 309.149 507.547C311.922 508.402 313.036 509.335 313.036 510.838C313.036 512.185 311.352 513.325 309.33 513.325C307.75 513.325 305.91 512.652 304.356 511.538L303.786 512.263C305.34 513.507 307.413 514.258 309.33 514.258ZM322.955 512.652C322.411 513.066 321.711 513.325 321.037 513.325C319.949 513.325 319.172 512.289 319.172 510.838V501.484H322.696V500.551H319.172V496.872H318.239V500.551H315.881V501.484H318.239V510.838C318.239 512.833 319.379 514.258 320.986 514.258C321.867 514.258 322.774 513.947 323.473 513.403L322.955 512.652ZM326.837 497.598C327.252 497.598 327.615 497.261 327.615 496.82C327.615 496.406 327.252 496.043 326.837 496.043C326.397 496.043 326.06 496.406 326.06 496.82C326.06 497.261 326.397 497.598 326.837 497.598ZM326.371 513.947H327.304V500.551H326.371V513.947ZM336.939 513.325C334.037 513.325 331.524 510.786 331.317 507.677H343.313C343.313 503.22 340.774 500.24 336.939 500.24C333.26 500.24 330.358 503.298 330.358 507.21C330.358 511.045 333.364 514.258 336.939 514.258C339.09 514.258 341.422 513.403 342.536 512.185L341.888 511.486C340.774 512.704 338.857 513.325 336.939 513.325ZM336.939 501.173C340.1 501.173 342.225 503.402 342.381 506.744H331.317C331.524 503.609 333.934 501.173 336.939 501.173Z" fill="#CB5B66"/>
<path opacity="0.34" d="M530.662 498.157V495.943H518.767V512.125H530.662V509.911H521.169V504.988H529.72V502.774H521.169V498.157H530.662ZM533.342 512.125H535.674V495.66H533.342V512.125ZM539.578 497.921C540.356 497.921 540.968 497.262 540.968 496.508C540.968 495.778 540.356 495.118 539.578 495.118C538.801 495.118 538.165 495.778 538.165 496.508C538.165 497.262 538.801 497.921 539.578 497.921ZM538.424 512.125H540.732V499.947H538.424V512.125ZM549.352 509.934C549.093 510.193 548.621 510.382 548.103 510.382C547.42 510.382 546.855 509.769 546.855 508.921V501.926H549.729V499.947H546.855V496.602H544.57V499.947H542.733V501.926H544.57V509.086C544.57 511.041 545.889 512.408 547.773 512.408C548.645 512.408 549.54 512.078 550.2 511.536L549.352 509.934Z" fill="#1D2125"/>
<path opacity="0.34" d="M38.1266 498.157V495.943H26.2312V512.125H28.6338V505.082H37.1844V502.868H28.6338V498.157H38.1266ZM45.2486 499.664C43.9059 499.664 42.3748 500.018 40.6317 500.889L41.5033 502.609C42.5633 502.067 43.7175 501.596 44.9188 501.596C47.345 501.596 48.0517 503.221 48.0517 504.752V505.129C46.8739 504.729 45.5784 504.47 44.377 504.47C41.6917 504.47 39.5011 506.095 39.5011 508.521C39.5011 510.9 41.4326 512.408 44.0001 512.408C45.5077 512.408 47.1566 511.725 48.0517 510.476V512.125H50.3365V504.752C50.3365 501.737 48.5228 499.664 45.2486 499.664ZM44.4713 510.57C42.9166 510.57 41.7388 509.769 41.7388 508.45C41.7388 507.131 43.105 506.213 44.7304 506.213C45.9317 506.213 47.0388 506.378 48.0517 506.684V508.309C47.6512 509.817 45.9788 510.57 44.4713 510.57ZM58.6536 512.408C60.4673 512.408 62.0455 511.654 63.2233 510.453L61.6451 509.016C60.8913 509.864 59.8078 510.382 58.6536 510.382C56.4394 510.382 54.6021 508.403 54.6021 506.024C54.6021 503.669 56.4394 501.69 58.6536 501.69C59.7842 501.69 60.8442 502.185 61.5744 503.009L63.1526 501.549C61.9984 500.394 60.4202 499.664 58.6771 499.664C55.1909 499.664 52.2465 502.562 52.2465 506.024C52.2465 509.487 55.1909 512.408 58.6536 512.408ZM66.3193 497.921C67.0967 497.921 67.7091 497.262 67.7091 496.508C67.7091 495.778 67.0967 495.118 66.3193 495.118C65.542 495.118 64.906 495.778 64.906 496.508C64.906 497.262 65.542 497.921 66.3193 497.921ZM65.1651 512.125H67.4736V499.947H65.1651V512.125ZM70.2275 512.125H72.5595V495.66H70.2275V512.125ZM76.4638 497.921C77.2411 497.921 77.8535 497.262 77.8535 496.508C77.8535 495.778 77.2411 495.118 76.4638 495.118C75.6864 495.118 75.0505 495.778 75.0505 496.508C75.0505 497.262 75.6864 497.921 76.4638 497.921ZM75.3096 512.125H77.618V499.947H75.3096V512.125ZM84.5927 512.408C87.2545 512.408 89.2096 510.947 89.2096 508.639C89.2096 506.213 87.0896 505.553 85.0639 504.964C83.0145 504.328 82.1901 504.046 82.1901 503.103C82.1901 502.09 83.1794 501.549 84.4043 501.549C85.5114 501.549 86.7363 501.973 87.914 502.726L88.9034 501.078C87.5843 500.206 85.9825 499.664 84.4043 499.664C81.8368 499.664 79.9759 501.125 79.9759 503.362C79.9759 505.341 81.3657 506.142 84.1688 506.919C85.7234 507.343 86.9954 507.72 86.9954 508.874C86.9954 509.864 86.0532 510.523 84.6163 510.523C83.2736 510.523 81.8132 509.981 80.4706 508.992L79.387 510.594C80.871 511.772 82.8025 512.408 84.5927 512.408ZM92.428 497.921C93.2053 497.921 93.8178 497.262 93.8178 496.508C93.8178 495.778 93.2053 495.118 92.428 495.118C91.6507 495.118 91.0147 495.778 91.0147 496.508C91.0147 497.262 91.6507 497.921 92.428 497.921ZM91.2738 512.125H93.5822V499.947H91.2738V512.125ZM100.557 512.408C103.219 512.408 105.174 510.947 105.174 508.639C105.174 506.213 103.054 505.553 101.028 504.964C98.9788 504.328 98.1544 504.046 98.1544 503.103C98.1544 502.09 99.1437 501.549 100.369 501.549C101.476 501.549 102.701 501.973 103.878 502.726L104.868 501.078C103.549 500.206 101.947 499.664 100.369 499.664C97.801 499.664 95.9402 501.125 95.9402 503.362C95.9402 505.341 97.3299 506.142 100.133 506.919C101.688 507.343 102.96 507.72 102.96 508.874C102.96 509.864 102.017 510.523 100.581 510.523C99.2379 510.523 97.7775 509.981 96.4348 508.992L95.3513 510.594C96.8353 511.772 98.7668 512.408 100.557 512.408Z" fill="#1D2125"/>
<path d="M296.249 77.5876C294.239 76.7395 292.773 75.578 291.851 74.103C290.948 72.6096 290.496 70.978 290.496 69.2081C290.496 66.1844 291.547 63.6862 293.649 61.7135C295.769 59.7407 298.775 58.7544 302.665 58.7544C306.518 58.7544 309.505 59.7407 311.625 61.7135C313.764 63.6862 314.833 66.1844 314.833 69.2081C314.833 71.0886 314.344 72.7664 313.367 74.2413C312.39 75.6978 311.017 76.8132 309.247 77.5876C311.496 78.491 313.201 79.8092 314.363 81.5423C315.543 83.2754 316.133 85.2757 316.133 87.5435C316.133 91.2862 314.934 94.3282 312.538 96.6697C310.159 99.0112 306.988 100.182 303.024 100.182C299.337 100.182 296.267 99.214 293.815 97.2781C290.92 94.992 289.473 91.8577 289.473 87.8753C289.473 85.6814 290.017 83.6717 291.105 81.8465C292.193 80.0028 293.907 78.5832 296.249 77.5876ZM297.853 69.7612C297.853 71.3099 298.286 72.5175 299.152 73.384C300.037 74.2505 301.208 74.6838 302.665 74.6838C304.14 74.6838 305.32 74.2505 306.205 73.384C307.09 72.499 307.532 71.2822 307.532 69.7335C307.532 68.277 307.09 67.1155 306.205 66.2489C305.338 65.364 304.186 64.9215 302.748 64.9215C301.254 64.9215 300.065 65.364 299.18 66.2489C298.295 67.1339 297.853 68.3046 297.853 69.7612ZM297.134 87.1287C297.134 89.2673 297.678 90.9359 298.765 92.1343C299.871 93.3326 301.245 93.9318 302.886 93.9318C304.49 93.9318 305.817 93.3603 306.868 92.2172C307.919 91.0557 308.445 89.3872 308.445 87.2116C308.445 85.3126 307.91 83.7916 306.841 82.6485C305.771 81.487 304.416 80.9062 302.775 80.9062C300.876 80.9062 299.457 81.5607 298.516 82.8697C297.595 84.1788 297.134 85.5984 297.134 87.1287ZM347.356 92.2449V99.4629H320.115C320.41 96.7342 321.295 94.1531 322.77 91.7194C324.245 89.2673 327.158 86.0224 331.509 81.9848C335.012 78.7215 337.16 76.509 337.953 75.3475C339.022 73.7435 339.557 72.1579 339.557 70.5908C339.557 68.8578 339.087 67.5303 338.146 66.6085C337.225 65.6682 335.943 65.198 334.302 65.198C332.68 65.198 331.389 65.6866 330.431 66.6638C329.472 67.6409 328.919 69.2634 328.771 71.5311L321.028 70.7567C321.489 66.4794 322.936 63.4097 325.37 61.5475C327.803 59.6854 330.845 58.7544 334.496 58.7544C338.497 58.7544 341.64 59.8329 343.926 61.99C346.212 64.1471 347.356 66.8297 347.356 70.0377C347.356 71.863 347.024 73.6052 346.36 75.2646C345.715 76.9054 344.682 78.6293 343.263 80.4361C342.322 81.6345 340.626 83.3583 338.174 85.6076C335.722 87.8569 334.164 89.3503 333.5 90.0878C332.855 90.8252 332.33 91.5443 331.924 92.2449H347.356ZM354.103 91.6918H361.875V97.2505C361.875 99.4998 361.681 101.27 361.294 102.56C360.907 103.869 360.169 105.04 359.081 106.072C358.012 107.105 356.648 107.916 354.988 108.506L353.467 105.298C355.034 104.782 356.15 104.072 356.814 103.169C357.477 102.265 357.828 101.03 357.865 99.4629H354.103V91.6918ZM368.125 88.705L375.647 87.7924C375.887 89.7098 376.532 91.1755 377.583 92.1896C378.634 93.2036 379.906 93.7106 381.399 93.7106C383.003 93.7106 384.349 93.1022 385.437 91.8854C386.543 90.6685 387.096 89.0276 387.096 86.9627C387.096 85.0084 386.571 83.4597 385.52 82.3166C384.469 81.1736 383.188 80.602 381.676 80.602C380.68 80.602 379.491 80.7956 378.108 81.1828L378.965 74.8497C381.067 74.905 382.671 74.4533 383.778 73.4946C384.884 72.5175 385.437 71.2269 385.437 69.6229C385.437 68.2586 385.031 67.1708 384.22 66.3596C383.409 65.5483 382.33 65.1427 380.984 65.1427C379.657 65.1427 378.523 65.6037 377.583 66.5255C376.642 67.4473 376.071 68.7932 375.868 70.5632L368.705 69.3463C369.203 66.8942 369.95 64.9399 370.945 63.4834C371.96 62.0085 373.361 60.8562 375.149 60.0265C376.956 59.1784 378.975 58.7544 381.206 58.7544C385.022 58.7544 388.083 59.9712 390.387 62.4049C392.286 64.396 393.236 66.6453 393.236 69.1527C393.236 72.711 391.291 75.5503 387.4 77.6706C389.723 78.1684 391.576 79.2838 392.959 81.0168C394.36 82.7499 395.061 84.8425 395.061 87.2946C395.061 90.8529 393.761 93.8857 391.161 96.3932C388.562 98.9006 385.326 100.154 381.454 100.154C377.786 100.154 374.743 99.1034 372.328 97.0016C369.913 94.8813 368.512 92.1158 368.125 88.705ZM415.166 99.4629V91.3046H398.573V84.5014L416.162 58.7544H422.688V84.4737H427.722V91.3046H422.688V99.4629H415.166ZM415.166 84.4737V70.6185L405.846 84.4737H415.166ZM431.455 66.6914V59.4734H458.032V65.1151C455.838 67.2722 453.607 70.3696 451.339 74.4072C449.072 78.4449 447.338 82.7407 446.14 87.2946C444.96 91.83 444.379 95.8861 444.398 99.4629H436.903C437.032 93.8581 438.185 88.1427 440.36 82.3166C442.554 76.4906 445.476 71.2822 449.127 66.6914H431.455Z" fill="black"/>
<path opacity="0.5" d="M250.219 128.338V126.124H238.323V142.307H240.726V135.264H249.277V133.049H240.726V128.338H250.219ZM257.341 129.846C255.998 129.846 254.467 130.199 252.724 131.071L253.596 132.79C254.656 132.249 255.81 131.777 257.011 131.777C259.437 131.777 260.144 133.403 260.144 134.934V135.311C258.966 134.91 257.671 134.651 256.469 134.651C253.784 134.651 251.593 136.276 251.593 138.703C251.593 141.082 253.525 142.589 256.092 142.589C257.6 142.589 259.249 141.906 260.144 140.658V142.307H262.429V134.934C262.429 131.919 260.615 129.846 257.341 129.846ZM256.563 140.752C255.009 140.752 253.831 139.951 253.831 138.632C253.831 137.313 255.197 136.394 256.823 136.394C258.024 136.394 259.131 136.559 260.144 136.865V138.491C259.743 139.998 258.071 140.752 256.563 140.752ZM270.746 142.589C272.56 142.589 274.138 141.836 275.316 140.634L273.737 139.197C272.984 140.045 271.9 140.564 270.746 140.564C268.532 140.564 266.694 138.585 266.694 136.206C266.694 133.85 268.532 131.872 270.746 131.872C271.876 131.872 272.936 132.366 273.667 133.191L275.245 131.73C274.091 130.576 272.512 129.846 270.769 129.846C267.283 129.846 264.339 132.743 264.339 136.206C264.339 139.668 267.283 142.589 270.746 142.589ZM278.412 128.103C279.189 128.103 279.801 127.443 279.801 126.689C279.801 125.959 279.189 125.3 278.412 125.3C277.634 125.3 276.998 125.959 276.998 126.689C276.998 127.443 277.634 128.103 278.412 128.103ZM277.257 142.307H279.566V130.129H277.257V142.307ZM282.32 142.307H284.652V125.841H282.32V142.307ZM288.556 128.103C289.333 128.103 289.946 127.443 289.946 126.689C289.946 125.959 289.333 125.3 288.556 125.3C287.779 125.3 287.143 125.959 287.143 126.689C287.143 127.443 287.779 128.103 288.556 128.103ZM287.402 142.307H289.71V130.129H287.402V142.307ZM296.685 142.589C299.347 142.589 301.302 141.129 301.302 138.82C301.302 136.394 299.182 135.735 297.156 135.146C295.107 134.51 294.282 134.227 294.282 133.285C294.282 132.272 295.272 131.73 296.497 131.73C297.604 131.73 298.829 132.154 300.006 132.908L300.996 131.259C299.677 130.388 298.075 129.846 296.497 129.846C293.929 129.846 292.068 131.306 292.068 133.544C292.068 135.523 293.458 136.324 296.261 137.101C297.816 137.525 299.088 137.902 299.088 139.056C299.088 140.045 298.145 140.705 296.709 140.705C295.366 140.705 293.905 140.163 292.563 139.174L291.479 140.776C292.963 141.953 294.895 142.589 296.685 142.589ZM304.52 128.103C305.298 128.103 305.91 127.443 305.91 126.689C305.91 125.959 305.298 125.3 304.52 125.3C303.743 125.3 303.107 125.959 303.107 126.689C303.107 127.443 303.743 128.103 304.52 128.103ZM303.366 142.307H305.674V130.129H303.366V142.307ZM315.976 128.103C316.753 128.103 317.366 127.443 317.366 126.689C317.366 125.959 316.753 125.3 315.976 125.3C315.199 125.3 314.563 125.959 314.563 126.689C314.563 127.443 315.199 128.103 315.976 128.103ZM314.822 142.307H317.13V130.129H314.822V142.307ZM326.032 129.846C324.336 129.846 322.828 130.694 322.122 131.919V130.129H319.813V142.307H322.122V134.745C322.122 133.144 323.629 131.872 325.49 131.872C327.139 131.872 328.293 133.12 328.293 134.957V142.307H330.578V134.557C330.578 131.754 328.717 129.846 326.032 129.846ZM353.165 129.846C351.375 129.846 349.867 130.623 349.019 131.872C348.242 130.623 346.923 129.846 345.321 129.846C343.743 129.846 342.471 130.623 341.859 131.872V130.129H339.55V142.307H341.859V134.698C341.859 133.026 343.107 131.872 344.85 131.872C346.381 131.872 347.441 133.12 347.441 134.91V142.307H349.726V134.698C349.726 133.026 350.951 131.872 352.694 131.872C354.225 131.872 355.285 133.12 355.285 134.91V142.307H357.57V134.557C357.57 131.801 355.709 129.846 353.165 129.846ZM365.157 129.846C363.814 129.846 362.283 130.199 360.54 131.071L361.412 132.79C362.472 132.249 363.626 131.777 364.827 131.777C367.253 131.777 367.96 133.403 367.96 134.934V135.311C366.782 134.91 365.487 134.651 364.285 134.651C361.6 134.651 359.409 136.276 359.409 138.703C359.409 141.082 361.341 142.589 363.909 142.589C365.416 142.589 367.065 141.906 367.96 140.658V142.307H370.245V134.934C370.245 131.919 368.431 129.846 365.157 129.846ZM364.38 140.752C362.825 140.752 361.647 139.951 361.647 138.632C361.647 137.313 363.013 136.394 364.639 136.394C365.84 136.394 366.947 136.559 367.96 136.865V138.491C367.56 139.998 365.887 140.752 364.38 140.752ZM382.025 130.129V132.06C381.106 130.694 379.551 129.846 377.738 129.846C374.51 129.846 372.178 132.225 372.178 135.617C372.178 139.009 374.51 141.412 377.738 141.412C379.551 141.412 381.059 140.587 382.025 139.197V140.964C382.025 143.084 380.446 144.332 377.855 144.332C376.371 144.332 374.911 143.838 374.016 142.99L373.097 144.733C374.251 145.675 376.136 146.358 378.185 146.358C381.789 146.358 384.357 144.144 384.357 141.011V130.129H382.025ZM378.303 139.386C376.159 139.386 374.605 137.831 374.605 135.617C374.605 133.426 376.159 131.872 378.303 131.872C380.493 131.872 382.025 133.426 382.025 135.617C382.025 137.831 380.493 139.386 378.303 139.386ZM393.27 129.846C391.574 129.846 390.067 130.694 389.36 131.919V130.129H387.052V142.307H389.36V134.745C389.36 133.144 390.868 131.872 392.729 131.872C394.377 131.872 395.532 133.12 395.532 134.957V142.307H397.817V134.557C397.817 131.754 395.956 129.846 393.27 129.846ZM405.413 129.846C404.07 129.846 402.539 130.199 400.796 131.071L401.667 132.79C402.727 132.249 403.881 131.777 405.083 131.777C407.509 131.777 408.216 133.403 408.216 134.934V135.311C407.038 134.91 405.742 134.651 404.541 134.651C401.856 134.651 399.665 136.276 399.665 138.703C399.665 141.082 401.597 142.589 404.164 142.589C405.672 142.589 407.321 141.906 408.216 140.658V142.307H410.501V134.934C410.501 131.919 408.687 129.846 405.413 129.846ZM404.635 140.752C403.081 140.752 401.903 139.951 401.903 138.632C401.903 137.313 403.269 136.394 404.894 136.394C406.096 136.394 407.203 136.559 408.216 136.865V138.491C407.815 139.998 406.143 140.752 404.635 140.752ZM433.078 129.846C431.288 129.846 429.781 130.623 428.933 131.872C428.155 130.623 426.836 129.846 425.234 129.846C423.656 129.846 422.384 130.623 421.772 131.872V130.129H419.463V142.307H421.772V134.698C421.772 133.026 423.02 131.872 424.763 131.872C426.294 131.872 427.354 133.12 427.354 134.91V142.307H429.639V134.698C429.639 133.026 430.864 131.872 432.607 131.872C434.138 131.872 435.198 133.12 435.198 134.91V142.307H437.483V134.557C437.483 131.801 435.622 129.846 433.078 129.846ZM445.07 129.846C443.728 129.846 442.196 130.199 440.453 131.071L441.325 132.79C442.385 132.249 443.539 131.777 444.74 131.777C447.167 131.777 447.873 133.403 447.873 134.934V135.311C446.695 134.91 445.4 134.651 444.199 134.651C441.513 134.651 439.323 136.276 439.323 138.703C439.323 141.082 441.254 142.589 443.822 142.589C445.329 142.589 446.978 141.906 447.873 140.658V142.307H450.158V134.934C450.158 131.919 448.344 129.846 445.07 129.846ZM444.293 140.752C442.738 140.752 441.56 139.951 441.56 138.632C441.56 137.313 442.927 136.394 444.552 136.394C445.753 136.394 446.86 136.559 447.873 136.865V138.491C447.473 139.998 445.8 140.752 444.293 140.752ZM460.901 130.129V137.69C460.901 139.292 459.394 140.564 457.533 140.564C455.884 140.564 454.753 139.315 454.753 137.478V130.129H452.469V137.878C452.469 140.681 454.329 142.589 457.015 142.589C458.687 142.589 460.195 141.741 460.901 140.516V142.307H463.233V130.129H460.901ZM468.192 132.508V130.129H465.884V142.307H468.192V135.829C468.192 133.473 470.053 131.872 472.738 131.872V129.846C470.618 129.846 468.946 130.882 468.192 132.508ZM475.871 128.103C476.649 128.103 477.261 127.443 477.261 126.689C477.261 125.959 476.649 125.3 475.871 125.3C475.094 125.3 474.458 125.959 474.458 126.689C474.458 127.443 475.094 128.103 475.871 128.103ZM474.717 142.307H477.026V130.129H474.717V142.307ZM484 142.589C486.662 142.589 488.617 141.129 488.617 138.82C488.617 136.394 486.497 135.735 484.471 135.146C482.422 134.51 481.598 134.227 481.598 133.285C481.598 132.272 482.587 131.73 483.812 131.73C484.919 131.73 486.144 132.154 487.322 132.908L488.311 131.259C486.992 130.388 485.39 129.846 483.812 129.846C481.244 129.846 479.383 131.306 479.383 133.544C479.383 135.523 480.773 136.324 483.576 137.101C485.131 137.525 486.403 137.902 486.403 139.056C486.403 140.045 485.461 140.705 484.024 140.705C482.681 140.705 481.221 140.163 479.878 139.174L478.795 140.776C480.279 141.953 482.21 142.589 484 142.589Z" fill="black"/>
<circle cx="373.154" cy="233.549" r="25.9108" fill="#F39800"/>
<path d="M256.556 55.7071C256.556 53.7557 258.138 52.1738 260.089 52.1738C262.04 52.1738 263.622 53.7557 263.622 55.7071V58.3262C266.733 58.7828 269.202 59.8063 271.029 61.3967C272.542 62.7047 273.634 64.2693 274.305 66.0907C275.133 68.3407 273.164 70.4141 270.769 70.5193C268.564 70.6162 266.857 68.8806 265.53 67.1179C265.266 66.7676 264.97 66.4645 264.641 66.2087C263.498 65.2869 261.774 64.826 259.469 64.826C257.091 64.826 255.229 65.3145 253.883 66.2917C253.016 66.9186 252.583 67.7574 252.583 68.8083C252.583 69.767 252.989 70.5875 253.8 71.2696C254.832 72.1362 257.34 73.0396 261.322 73.9799C265.304 74.9201 268.245 75.8973 270.144 76.9113C272.062 77.9069 273.555 79.2804 274.624 81.0319C275.712 82.765 276.256 84.9129 276.256 87.4756C276.256 89.7987 275.611 91.9742 274.32 94.0022C273.03 96.0303 271.204 97.5421 268.844 98.5377C267.34 99.1607 265.599 99.5851 263.622 99.8109V101.64C263.622 103.591 262.04 105.173 260.089 105.173C258.138 105.173 256.556 103.591 256.556 101.64V99.8018C253.086 99.373 250.305 98.2603 248.214 96.4636C246.365 94.863 245.017 92.7739 244.17 90.1963C243.45 88.0043 245.178 85.9094 247.474 85.6861C249.61 85.4785 251.428 87.0153 252.406 88.9253C252.879 89.8487 253.463 90.6099 254.159 91.2091C255.634 92.4628 257.616 93.0896 260.105 93.0896C262.742 93.0896 264.724 92.5365 266.051 91.4303C267.397 90.3057 268.07 88.9967 268.07 87.5033C268.07 86.5445 267.784 85.7333 267.213 85.0696C266.66 84.3874 265.682 83.7975 264.281 83.2997C263.323 82.9678 261.138 82.3778 257.727 81.5297C253.339 80.442 250.26 79.1053 248.49 77.5197C246.001 75.2889 244.757 72.5694 244.757 69.3614C244.757 67.2965 245.337 65.3699 246.499 63.5815C247.679 61.7747 249.366 60.4011 251.56 59.4609C253.027 58.8375 254.692 58.4207 256.556 58.2106V55.7071Z" fill="#F39800"/>
</svg>
