<svg width="19" height="21" viewBox="0 0 19 21" fill="none" xmlns="http://www.w3.org/2000/svg">
<path opacity="0.4" d="M13.8656 0.0839844H5.13542C1.96875 0.0839844 0.125 1.93815 0.125 5.11523V15.8757C0.125 19.1048 1.96875 20.9173 5.13542 20.9173H13.8656C17.0833 20.9173 18.875 19.1048 18.875 15.8757V5.11523C18.875 1.93815 17.0833 0.0839844 13.8656 0.0839844Z" fill="#27D5E8"/>
<path d="M5.41553 14.3965H13.5822C13.9978 14.4382 14.3114 14.7923 14.3114 15.2194C14.3114 15.635 13.9978 15.9902 13.5822 16.0319H5.41553C5.10303 16.0736 4.80094 15.9173 4.63428 15.6569C4.46761 15.3861 4.46761 15.0423 4.63428 14.7819C4.80094 14.5111 5.10303 14.3652 5.41553 14.3965ZM13.5822 9.64544C14.0301 9.64544 14.3947 10.0111 14.3947 10.459C14.3947 10.9069 14.0301 11.2715 13.5822 11.2715H5.41553C4.96657 11.2715 4.60303 10.9069 4.60303 10.459C4.60303 10.0111 4.96657 9.64544 5.41553 9.64544H13.5822ZM8.52907 4.92773C8.97803 4.92773 9.34261 5.29232 9.34261 5.73919C9.34261 6.19857 8.97803 6.56315 8.52907 6.56315H5.41553C4.96657 6.56315 4.60303 6.19857 4.60303 5.75065C4.60303 5.30273 4.96657 4.93815 5.41553 4.93815V4.92773H8.52907Z" fill="white"/>
</svg>
