<svg width="21" height="20" viewBox="0 0 21 20" fill="none" xmlns="http://www.w3.org/2000/svg">
<path opacity="0.4" d="M10.267 19.7473C7.88888 18.2784 5.67815 16.5464 3.67529 14.5829C2.26136 13.181 1.18152 11.4692 0.518292 9.5784C-0.666742 5.89087 0.712712 1.67654 4.56407 0.425413C6.59689 -0.212988 8.80776 0.178911 10.5078 1.47899C12.2084 0.180365 14.4185 -0.211407 16.4514 0.425413C20.3028 1.67654 21.6915 5.89087 20.5065 9.5784C19.8486 11.4675 18.7752 13.1791 17.368 14.5829C15.3633 16.5443 13.1528 18.2761 10.7762 19.7473L10.517 19.9167L10.267 19.7473Z" fill="white"/>
<path d="M10.5115 19.9163L10.2668 19.7469C7.88572 18.2782 5.6719 16.5461 3.66581 14.5825C2.24517 13.1825 1.1589 11.4706 0.490287 9.57799C-0.685489 5.89045 0.693965 1.67613 4.54532 0.425001C6.57815 -0.213401 8.81817 0.178799 10.5115 1.48977V19.9163Z" fill="#FB7F74"/>
<path d="M16.9904 7.41586C16.7811 7.40238 16.5863 7.29781 16.4514 7.12663C16.3166 6.95545 16.2536 6.73271 16.2773 6.51058C16.3 5.77896 15.8837 5.11303 15.2417 4.85393C14.8346 4.7428 14.5881 4.30194 14.6899 3.86717C14.7866 3.43939 15.1871 3.17341 15.5897 3.26969C15.6406 3.27812 15.6895 3.29654 15.734 3.32401C17.0212 3.81935 17.8546 5.15251 17.7883 6.61016C17.7862 6.83109 17.7001 7.04165 17.5496 7.19355C17.3992 7.34546 17.1973 7.42569 16.9904 7.41586Z" fill="#FB7F74"/>
</svg>
