<svg width="19" height="21" viewBox="0 0 19 21" fill="none" xmlns="http://www.w3.org/2000/svg">
<path opacity="0.4" d="M16.5928 7.39753C16.1225 7.39753 15.4995 7.38711 14.724 7.38711C12.8325 7.38711 11.2772 5.82148 11.2772 3.91211V0.562109C11.2772 0.298568 11.0658 0.0839844 10.8048 0.0839844H5.29534C2.7252 0.0839844 0.645996 2.1944 0.645996 4.78086V16.0048C0.645996 18.7184 2.82421 20.9173 5.51089 20.9173H13.7143C16.2772 20.9173 18.3543 18.8204 18.3543 16.2319V7.86628C18.3543 7.60169 18.1439 7.38815 17.882 7.38919C17.4416 7.39232 16.9135 7.39753 16.5928 7.39753Z" fill="#EB5757"/>
<path opacity="0.4" d="M13.7536 0.675076C13.4432 0.351118 12.8984 0.574034 12.8984 1.02299V3.76987C12.8984 4.92195 13.8474 5.86987 14.9995 5.86987C15.7255 5.8782 16.7339 5.88028 17.5911 5.8782C18.0286 5.87716 18.2516 5.3532 17.9474 5.03653C16.8484 3.89383 14.8807 1.84591 13.7536 0.675076Z" fill="#EB5757"/>
<path d="M11.9655 13.176H6.81657C6.38844 13.176 6.04053 12.8292 6.04053 12.401C6.04053 11.9729 6.38844 11.625 6.81657 11.625H11.9655C12.3937 11.625 12.7416 11.9729 12.7416 12.401C12.7416 12.8292 12.3937 13.176 11.9655 13.176Z" fill="#EB5757"/>
</svg>
