<svg width="22" height="22" viewBox="0 0 22 22" fill="none" xmlns="http://www.w3.org/2000/svg">
<path d="M3.51966 4.93407L0.392664 1.80807L1.80766 0.393066L21.6067 20.1931L20.1917 21.6071L16.8817 18.2971C15.1229 19.4126 13.0824 20.0034 10.9997 20.0001C5.60766 20.0001 1.12166 16.1201 0.180664 11.0001C0.610694 8.67078 1.78229 6.54296 3.52066 4.93407H3.51966ZM13.7567 15.1721L12.2927 13.7081C11.7327 13.976 11.1034 14.0636 10.4916 13.9589C9.87975 13.8541 9.31547 13.5621 8.87653 13.1232C8.4376 12.6843 8.14563 12.12 8.04088 11.5081C7.93613 10.8963 8.02375 10.267 8.29166 9.70707L6.82766 8.24307C6.19138 9.20456 5.90693 10.3564 6.02249 11.5036C6.13805 12.6507 6.64652 13.7227 7.46178 14.5379C8.27705 15.3532 9.34902 15.8617 10.4962 15.9772C11.6433 16.0928 12.7952 15.8084 13.7567 15.1721ZM6.97366 2.76007C8.22066 2.27007 9.57966 2.00007 10.9997 2.00007C16.3917 2.00007 20.8777 5.88007 21.8187 11.0001C21.5122 12.6658 20.8235 14.2376 19.8067 15.5921L15.9467 11.7321C16.0613 10.9597 15.9935 10.1712 15.7486 9.42972C15.5037 8.68827 15.0885 8.01448 14.5364 7.46233C13.9843 6.91019 13.3105 6.49504 12.569 6.25014C11.8276 6.00524 11.0391 5.93741 10.2667 6.05207L6.97366 2.76107V2.76007Z" fill="#E3E6E9"/>
</svg>
