<svg width="19" height="21" viewBox="0 0 19 21" fill="none" xmlns="http://www.w3.org/2000/svg">
<path opacity="0.4" d="M16.5927 7.39753C16.1224 7.39753 15.4994 7.38711 14.7238 7.38711C12.8321 7.38711 11.2768 5.82148 11.2768 3.91211V0.562109C11.2768 0.298568 11.0653 0.0839844 10.8054 0.0839844H5.29561C2.72429 0.0839844 0.645996 2.1944 0.645996 4.78086V16.0048C0.645996 18.7184 2.82331 20.9173 5.51014 20.9173H13.714C16.2771 20.9173 18.3543 18.8204 18.3543 16.2319V7.86628C18.3543 7.60169 18.1439 7.38815 17.8819 7.38919C17.4426 7.39232 16.9134 7.39753 16.5927 7.39753Z" fill="#24E190"/>
<path opacity="0.4" d="M13.7536 0.675076C13.4422 0.351118 12.8984 0.574034 12.8984 1.02299V3.76987C12.8984 4.92195 13.8474 5.86987 14.9984 5.86987C15.7255 5.8782 16.7339 5.88028 17.5901 5.8782C18.0286 5.87716 18.2516 5.3532 17.9474 5.03653C16.8484 3.89383 14.8807 1.84591 13.7536 0.675076Z" fill="#24E190"/>
<path d="M11.9655 10.7469H10.1655V8.94792C10.1655 8.51979 9.81865 8.17188 9.39053 8.17188C8.9624 8.17188 8.61449 8.51979 8.61449 8.94792V10.7469H6.81553C6.3874 10.7469 6.04053 11.0948 6.04053 11.5229C6.04053 11.951 6.3874 12.299 6.81553 12.299H8.61449V14.0969C8.61449 14.525 8.9624 14.8729 9.39053 14.8729C9.81865 14.8729 10.1655 14.525 10.1655 14.0969V12.299H11.9655C12.3937 12.299 12.7416 11.951 12.7416 11.5229C12.7416 11.0948 12.3937 10.7469 11.9655 10.7469Z" fill="#24E190"/>
</svg>
