<svg width="18" height="18" viewBox="0 0 18 18" fill="none" xmlns="http://www.w3.org/2000/svg">
<path d="M8.16602 0.666748C12.306 0.666748 15.666 4.02675 15.666 8.16675C15.666 12.3067 12.306 15.6667 8.16602 15.6667C4.02602 15.6667 0.666016 12.3067 0.666016 8.16675C0.666016 4.02675 4.02602 0.666748 8.16602 0.666748ZM8.16602 14.0001C11.3885 14.0001 13.9993 11.3892 13.9993 8.16675C13.9993 4.94341 11.3885 2.33341 8.16602 2.33341C4.94268 2.33341 2.33268 4.94341 2.33268 8.16675C2.33268 11.3892 4.94268 14.0001 8.16602 14.0001ZM15.2368 14.0592L17.5943 16.4159L16.4152 17.5951L14.0585 15.2376L15.2368 14.0592Z" fill="black"/>
</svg>
