<svg width="22" height="26" viewBox="0 0 22 26" fill="none" xmlns="http://www.w3.org/2000/svg">
<path opacity="0.4" d="M11.1082 25.5C10.9534 25.5 10.7986 25.4645 10.6589 25.3921L6.15754 23.062C4.88024 22.4001 3.88105 21.6573 3.10083 20.7919C1.39316 18.8994 0.443049 16.47 0.427948 13.9499L0.375047 5.65533C0.368802 4.69803 0.986687 3.83879 1.91037 3.51519L10.1757 0.633485C10.6665 0.458205 11.2139 0.455753 11.7135 0.624905L20.0102 3.40855C20.9389 3.71866 21.5669 4.57178 21.5719 5.52785L21.6248 13.8285C21.6411 16.345 20.7238 18.7842 19.0425 20.6976C18.2711 21.5752 17.2807 22.329 16.016 23.0032L11.5549 25.386C11.4165 25.4608 11.2629 25.4988 11.1082 25.5Z" fill="#56CCF2"/>
<path d="M10.1491 15.9016C9.90746 15.9029 9.66585 15.8158 9.4796 15.6369L7.08357 13.3325C6.71359 12.9746 6.70982 12.3936 7.07602 12.0332C7.44222 11.6716 8.03997 11.6679 8.4112 12.0246L10.1352 13.6818L14.3447 9.53148C14.7121 9.16989 15.3099 9.16621 15.6798 9.5229C16.0511 9.88081 16.0548 10.463 15.6886 10.8222L10.8148 15.6283C10.6311 15.8097 10.3907 15.9004 10.1491 15.9016Z" fill="#56CCF2"/>
</svg>
