<svg width="21" height="19" viewBox="0 0 21 19" fill="none" xmlns="http://www.w3.org/2000/svg">
<path opacity="0.4" d="M4.98517 10.4277C4.44756 10.4277 4.01234 10.8694 4.01234 11.415L3.74414 16.1846C3.74414 16.8799 4.30005 17.4428 4.98517 17.4428C5.6703 17.4428 6.22499 16.8799 6.22499 16.1846L5.95801 11.415C5.95801 10.8694 5.52279 10.4277 4.98517 10.4277Z" fill="white"/>
<path d="M6.31256 0.826507C6.31256 0.826507 6.03339 0.539471 5.86028 0.414511C5.60914 0.221504 5.29949 0.125 4.99106 0.125C4.64484 0.125 4.323 0.233876 4.0609 0.439256C4.01335 0.487507 3.81099 0.66938 3.64397 0.83888C2.59555 1.8299 0.880293 4.41694 0.356084 5.7717C0.273186 5.97708 0.0939796 6.49672 0.0830078 6.77509C0.0830078 7.03986 0.141524 7.29473 0.260995 7.53599C0.42801 7.83787 0.690115 8.08037 0.999763 8.21275C1.21432 8.29812 1.85678 8.4305 1.86897 8.4305C2.57239 8.56412 3.7159 8.63588 4.97887 8.63588C6.18212 8.63588 7.27808 8.56412 7.99246 8.45525C8.00466 8.44287 8.80194 8.31049 9.07623 8.1645C9.57606 7.89849 9.88693 7.37886 9.88693 6.82334V6.77509C9.87474 6.41259 9.56387 5.65045 9.5529 5.65045C9.02869 4.36869 7.39633 1.84227 6.31256 0.826507Z" fill="#FBD969"/>
<path opacity="0.4" d="M16.015 8.57187C16.5526 8.57187 16.9878 8.13017 16.9878 7.58454L17.2548 2.81493C17.2548 2.11959 16.7001 1.55664 16.015 1.55664C15.3298 1.55664 14.7739 2.11959 14.7739 2.81493L15.0421 7.58454C15.0421 8.13017 15.4773 8.57187 16.015 8.57187Z" fill="white"/>
<path d="M20.7387 11.4632C20.5717 11.1613 20.3096 10.92 20 10.7864C19.7854 10.7011 19.1417 10.5687 19.1307 10.5687C18.4273 10.435 17.2838 10.3633 16.0208 10.3633C14.8176 10.3633 13.7216 10.435 13.0073 10.5439C12.9951 10.5563 12.1978 10.6899 11.9235 10.8347C11.4224 11.1007 11.1128 11.6203 11.1128 12.1771V12.2253C11.125 12.5879 11.4346 13.3488 11.4468 13.3488C11.971 14.6306 13.6022 17.1583 14.6872 18.1728C14.6872 18.1728 14.9663 18.4599 15.1394 18.5836C15.3894 18.7778 15.699 18.8743 16.0099 18.8743C16.3549 18.8743 16.6755 18.7655 16.9388 18.5601C16.9864 18.5118 17.1887 18.33 17.3558 18.1617C18.4029 17.1694 20.1194 14.5823 20.6424 13.2288C20.7265 13.0234 20.9057 12.5025 20.9167 12.2253C20.9167 11.9593 20.8582 11.7045 20.7387 11.4632Z" fill="#FBD969"/>
</svg>
