<svg width="26" height="26" viewBox="0 0 26 26" fill="none" xmlns="http://www.w3.org/2000/svg">
<path opacity="0.4" d="M0.500488 11.8477C0.562988 14.7702 0.737988 19.7689 0.762988 20.3202C0.851738 21.4989 1.30299 22.6902 2.00549 23.5302C2.98299 24.7089 4.18674 25.2352 5.86549 25.2352C8.18549 25.2477 10.743 25.2477 13.2267 25.2477C15.7205 25.2477 18.1405 25.2477 20.1842 25.2352C21.8392 25.2352 23.0805 24.6952 24.0455 23.5302C24.748 22.6902 25.1992 21.4864 25.263 20.3202C25.288 19.8564 25.413 14.4302 25.488 11.8477H0.500488Z" fill="#FBD969"/>
<path d="M12.0562 17.2305V18.848C12.0562 19.3655 12.4762 19.7855 12.9937 19.7855C13.5112 19.7855 13.9312 19.3655 13.9312 18.848V17.2305C13.9312 16.713 13.5112 16.293 12.9937 16.293C12.4762 16.293 12.0562 16.713 12.0562 17.2305Z" fill="#FBD969"/>
<path d="M14.608 0.5C16.4842 0.5 18.023 1.91125 18.258 3.72625H20.7292C23.353 3.72625 25.488 5.86125 25.488 8.48625V12.8187C25.488 13.1337 25.3292 13.4275 25.068 13.6012C22.4905 15.3075 19.4305 16.4437 16.2205 16.8875C16.1767 16.8937 16.1342 16.8962 16.0917 16.8962C15.668 16.8962 15.2892 16.61 15.183 16.19C14.9305 15.195 14.0267 14.4987 12.988 14.4987C11.9355 14.4987 11.0417 15.18 10.7642 16.195C10.6392 16.6487 10.203 16.9387 9.73049 16.8762C6.54174 16.4312 3.49424 15.3 0.921738 13.6012C0.657988 13.4287 0.500488 13.1337 0.500488 12.8187V8.48625C0.500488 5.86125 2.64049 3.72625 5.27174 3.72625H7.73049C7.96549 1.91125 9.50299 0.5 11.3805 0.5H14.608ZM14.608 2.375H11.3805C10.5392 2.375 9.83674 2.95 9.62674 3.72625H16.3605C16.1505 2.95 15.448 2.375 14.608 2.375Z" fill="#FBD969"/>
</svg>
